<svg version="1.2" xmlns="http://www.w3.org/2000/svg" viewBox="0 0 200 200" width="200" height="200">
	<style>
		.s0 { fill: #83b5d6;stroke: #030303;stroke-miterlimit:10;stroke-width: 16 } 
		.s1 { fill: none;stroke: #030303;stroke-miterlimit:10;stroke-width: 16 } 
		.s2 { fill: #000000 } 
	</style>
	<g id="Layer 1">
		<path id="Shape 1" fill-rule="evenodd" class="s0" d="m100 310c-53.64 0-97-41.12-97-92 0-50.88 43.36-92 97-92 53.64 0 97 41.12 97 92 0 50.88-43.36 92-97 92z"/>
		<path id="Shape 3" fill-rule="evenodd" class="s1" d="m3.5 192.73l193-0.25z"/>
		<path id="Shape 2" fill-rule="evenodd" class="s0" d="m96.5 105c-26.82 0-48.5-21.68-48.5-48.5 0-26.82 21.68-48.5 48.5-48.5 26.82 0 48.5 21.68 48.5 48.5 0 26.82-21.68 48.5-48.5 48.5z"/>
		<path id="Shape 5" fill-rule="evenodd" class="s0" d="m-78.61 37.8"/>
		<path id="Shape 4" fill-rule="evenodd" class="s2" d="m141.42 82.98"/>
	</g>
</svg>